<svg width="1280" height="720" viewBox="0 0 1280 720" fill="none" xmlns="http://www.w3.org/2000/svg" role="img" aria-label="AWS Cloud Architecture and Security">
  <defs>
    <linearGradient id="bg1" x1="0" y1="0" x2="1280" y2="720" gradientUnits="userSpaceOnUse">
      <stop stop-color="#060B14"/><stop offset="1" stop-color="#0A1626"/>
    </linearGradient>
    <radialGradient id="g1" cx="50%" cy="42%" r="55%">
      <stop stop-color="#4DA3FF" stop-opacity="0.16"/><stop offset="1" stop-color="#4DA3FF" stop-opacity="0"/>
    </radialGradient>
  </defs>
  <rect width="1280" height="720" fill="url(#bg1)"/>
  <rect width="1280" height="720" fill="url(#g1)"/>

  <!-- cloud outline -->
  <path d="M470 250c0-46 38-84 84-84 36 0 66 22 79 54 9-6 20-10 32-10 31 0 56 25 56 56 0 4 0 8-1 11 28 6 49 31 49 61 0 35-28 63-63 63H505c-39 0-71-32-71-71 0-34 24-62 56-69-1-6-1-11 0-11z" fill="none" stroke="#4DA3FF" stroke-width="3" stroke-opacity="0.85"/>

  <!-- tiers -->
  <g stroke="#4DA3FF" stroke-width="2.4">
    <rect x="430" y="470" width="420" height="64" rx="10" fill="#0A1626" stroke-opacity="0.9"/>
    <rect x="470" y="556" width="340" height="58" rx="10" fill="#0A1626" stroke-opacity="0.6"/>
  </g>
  <!-- connectors -->
  <g stroke="#7CF5D0" stroke-width="2" stroke-opacity="0.6">
    <line x1="640" y1="406" x2="640" y2="470"/>
    <line x1="640" y1="534" x2="640" y2="556"/>
  </g>
  <!-- nodes on tiers -->
  <g fill="#7CF5D0">
    <circle cx="500" cy="502" r="5"/><circle cx="640" cy="502" r="5"/><circle cx="780" cy="502" r="5"/>
  </g>
  <circle cx="640" cy="250" r="10" fill="#0A1626" stroke="#D49A3A" stroke-width="3"/>

  <rect x="80" y="80" width="48" height="3" fill="#D49A3A"/>
  <text x="80" y="68" font-family="'JetBrains Mono',monospace" font-size="20" letter-spacing="5" fill="#6B8299">PROJECT 01</text>
  <text x="80" y="660" font-family="'Space Grotesk','Arial',sans-serif" font-size="48" font-weight="700" fill="#E6EDF6">AWS Cloud Architecture &amp; Security</text>
  <text x="82" y="695" font-family="'JetBrains Mono',monospace" font-size="18" letter-spacing="2" fill="#4DA3FF">VPC · EC2 · RDS · S3 · IAM · HA</text>
</svg>
