<svg width="1280" height="720" viewBox="0 0 1280 720" fill="none" xmlns="http://www.w3.org/2000/svg" role="img" aria-label="Job Management System — Java">
  <defs>
    <linearGradient id="bg4" x1="0" y1="0" x2="1280" y2="720" gradientUnits="userSpaceOnUse">
      <stop stop-color="#060B14"/><stop offset="1" stop-color="#0A1626"/>
    </linearGradient>
    <radialGradient id="g4" cx="50%" cy="42%" r="55%">
      <stop stop-color="#4DA3FF" stop-opacity="0.16"/><stop offset="1" stop-color="#4DA3FF" stop-opacity="0"/>
    </radialGradient>
  </defs>
  <rect width="1280" height="720" fill="url(#bg4)"/>
  <rect width="1280" height="720" fill="url(#g4)"/>

  <!-- window frame -->
  <rect x="390" y="160" width="500" height="380" rx="12" fill="#0A1626" stroke="#4DA3FF" stroke-width="2.6"/>
  <!-- title bar -->
  <path d="M390 172a12 12 0 0 1 12-12h476a12 12 0 0 1 12 12v34H390z" fill="#060B14" stroke="#4DA3FF" stroke-width="2.6"/>
  <circle cx="420" cy="189" r="5" fill="#D49A3A"/>
  <circle cx="440" cy="189" r="5" fill="#4DA3FF"/>
  <circle cx="460" cy="189" r="5" fill="#7CF5D0"/>
  <!-- list rows -->
  <g>
    <rect x="420" y="240" width="440" height="44" rx="6" fill="none" stroke="#4DA3FF" stroke-opacity="0.55" stroke-width="2"/>
    <rect x="420" y="300" width="440" height="44" rx="6" fill="none" stroke="#4DA3FF" stroke-opacity="0.4" stroke-width="2"/>
    <rect x="420" y="360" width="440" height="44" rx="6" fill="none" stroke="#4DA3FF" stroke-opacity="0.3" stroke-width="2"/>
  </g>
  <g fill="#7CF5D0">
    <circle cx="448" cy="262" r="6"/><circle cx="448" cy="322" r="6" fill-opacity="0.7"/><circle cx="448" cy="382" r="6" fill-opacity="0.5"/>
  </g>
  <g stroke="#6B8299" stroke-width="3" stroke-linecap="round">
    <line x1="480" y1="262" x2="700" y2="262"/>
    <line x1="480" y1="322" x2="660" y2="322" stroke-opacity="0.7"/>
    <line x1="480" y1="382" x2="680" y2="382" stroke-opacity="0.5"/>
  </g>
  <!-- run button -->
  <rect x="740" y="470" width="120" height="44" rx="8" fill="none" stroke="#D49A3A" stroke-width="2.4"/>

  <rect x="80" y="80" width="48" height="3" fill="#D49A3A"/>
  <text x="80" y="68" font-family="'JetBrains Mono',monospace" font-size="20" letter-spacing="5" fill="#6B8299">PROJECT 04</text>
  <text x="80" y="660" font-family="'Space Grotesk','Arial',sans-serif" font-size="48" font-weight="700" fill="#E6EDF6">Job Management System</text>
  <text x="82" y="695" font-family="'JetBrains Mono',monospace" font-size="18" letter-spacing="2" fill="#4DA3FF">Java · OOP · JUnit · Swing · Git</text>
</svg>
